<svg xmlns="http://www.w3.org/2000/svg" viewBox="0 0 32 32">
  <!-- Background circle with nature gradient -->
  <circle cx="16" cy="16" r="15" fill="url(#natureGradient)" stroke="#059669" stroke-width="1"/>
  
  <!-- Tree trunk -->
  <rect x="14" y="18" width="4" height="8" fill="#92400e" rx="0.5"/>
  
  <!-- Tree canopy (skill tree style) -->
  <g id="canopy">
    <!-- Main tree shape -->
    <path d="M16 5 C10 5, 6 10, 6 14 C6 18, 10 20, 16 20 C22 20, 26 18, 26 14 C26 10, 22 5, 16 5 Z" 
          fill="url(#leafGradient)" 
          opacity="0.95"/>
    
    <!-- Skill nodes on tree -->
    <circle cx="16" cy="10" r="1.5" fill="#fbbf24" opacity="0.9"/>
    <circle cx="12" cy="13" r="1.5" fill="#10b981" opacity="0.9"/>
    <circle cx="20" cy="13" r="1.5" fill="#0ea5e9" opacity="0.9"/>
    <circle cx="14" cy="16" r="1.5" fill="#f97316" opacity="0.9"/>
    <circle cx="18" cy="16" r="1.5" fill="#10b981" opacity="0.9"/>
    
    <!-- Connections between nodes -->
    <line x1="16" y1="10" x2="12" y2="13" stroke="#34d399" stroke-width="1" opacity="0.6"/>
    <line x1="16" y1="10" x2="20" y2="13" stroke="#34d399" stroke-width="1" opacity="0.6"/>
    <line x1="12" y1="13" x2="14" y2="16" stroke="#34d399" stroke-width="1" opacity="0.6"/>
    <line x1="20" y1="13" x2="18" y2="16" stroke="#34d399" stroke-width="1" opacity="0.6"/>
  </g>
  
  <!-- Small ground/grass -->
  <ellipse cx="16" cy="26" rx="8" ry="2" fill="#86efac" opacity="0.6"/>
  
  <!-- Gradient definitions -->
  <defs>
    <linearGradient id="natureGradient" x1="0%" y1="0%" x2="100%" y2="100%">
      <stop offset="0%" style="stop-color:#ecfdf5;stop-opacity:1" />
      <stop offset="100%" style="stop-color:#d1fae5;stop-opacity:1" />
    </linearGradient>
    
    <linearGradient id="leafGradient" x1="0%" y1="0%" x2="100%" y2="100%">
      <stop offset="0%" style="stop-color:#059669;stop-opacity:1" />
      <stop offset="50%" style="stop-color:#10b981;stop-opacity:1" />
      <stop offset="100%" style="stop-color:#34d399;stop-opacity:1" />
    </linearGradient>
  </defs>
</svg>